# xmcd
#
# Track frame offsets:
#	150
#	16135
#	35270
#	49592
#	64207
#	79005
#	90162
#	104482
#	116805
#	131965
#
# Disc length: 1966 seconds
#
# Revision: 2
# Processed by: cddbd v1.5.2PL0 Copyright (c) Steve Scherf et al.
# Submitted via: audiograbber 1.83.01
#
DISCID=7b07ac0a
DTITLE=Various Artist - Greatest Country Hits Of The 80's - 1982
DYEAR=1989
DGENRE=Country
TTITLE0=Nelson, Willie - Always On My Mind
TTITLE1=Haggard, Merle - Are The Good Times Really Over
TTITLE2=Dalton, Lacy J. - 16th Avenue
TTITLE3=Haggard, Merle and Jones, George - Yesterday's Wine
TTITLE4=Skaggs, Ricky - Hearbroke
TTITLE5=Frickie, Janie - Don't Worry 'bout Me Baby
TTITLE6=Gayle, Crystal - You Never Gave Up On Me
TTITLE7=Bandy, Moe - She's Not Really Cheartin' (She's Gettin' Even)
TTITLE8=Robbins, Marty - Some Memories Just Won't Die
TTITLE9=Gilley, Mickey - Lonely Nights
EXTD=
EXTT0=
EXTT1=
EXTT2=
EXTT3=
EXTT4=
EXTT5=
EXTT6=
EXTT7=
EXTT8=
EXTT9=
PLAYORDER=
